<svg width="17" height="17" viewBox="0 0 17 17" fill="none" xmlns="http://www.w3.org/2000/svg">
<path d="M4.33333 9.25H6.35714M13.5 2.5H15.5C15.7761 2.5 16 2.72386 16 3V15.5C16 15.7761 15.7761 16 15.5 16H1.5C1.22386 16 1 15.7761 1 15.5V3C1 2.72386 1.22386 2.5 1.5 2.5H3.5M13.5 2.5V1.5C13.5 1.22386 13.2761 1 13 1H12.3333C12.0572 1 11.8333 1.22386 11.8333 1.5V2.5M13.5 2.5H11.8333M11.8333 2.5H5.16667M5.16667 2.5V1.5C5.16667 1.22386 4.94281 1 4.66667 1H4C3.72386 1 3.5 1.22386 3.5 1.5V2.5M5.16667 2.5H3.5M1 6.25H16M7.42857 9.25H9.57143M10.7962 9.25H12.7857M4.21429 12.3214H6.35714M7.42857 12.3214H9.57143M10.7962 12.3214H12.7857" stroke="#163C66" stroke-opacity="0.7" stroke-width="1.5"/>
</svg>
