<svg width="32" height="32" viewBox="0 0 32 32" fill="none" xmlns="http://www.w3.org/2000/svg">
<path fill-rule="evenodd" clip-rule="evenodd" d="M32 16C32 24.8366 24.8366 32 16 32C7.16344 32 0 24.8366 0 16C0 7.16344 7.16344 0 16 0C24.8366 0 32 7.16344 32 16ZM19.7987 8.60159C18.8097 8.55647 18.5131 8.54693 16.0086 8.54693C13.5043 8.54693 13.2076 8.55647 12.2186 8.60159C11.3042 8.64332 10.8076 8.79612 10.4771 8.92453C10.0392 9.09468 9.72677 9.29796 9.39857 9.62616C9.07038 9.95435 8.8671 10.2668 8.69699 10.7046C8.56854 11.0351 8.41575 11.5318 8.37401 12.4462C8.32888 13.4353 8.31935 13.7318 8.31935 16.2363C8.31935 18.7406 8.32888 19.0373 8.37401 20.0263C8.41575 20.9407 8.56854 21.4374 8.69699 21.7679C8.8671 22.2057 9.07038 22.5182 9.39857 22.8463C9.72677 23.1746 10.0392 23.3779 10.4771 23.5479C10.8076 23.6764 11.3042 23.8292 12.2187 23.8709C13.2075 23.9161 13.5042 23.9255 16.0086 23.9255C18.5132 23.9255 18.8099 23.9161 19.7987 23.8709C20.7132 23.8292 21.2098 23.6764 21.5403 23.5479C21.9781 23.3779 22.2906 23.1746 22.6188 22.8463C22.947 22.5182 23.1502 22.2057 23.3204 21.7679C23.4489 21.4374 23.6017 20.9407 23.6434 20.0263C23.6885 19.0373 23.698 18.7406 23.698 16.2363C23.698 13.7318 23.6885 13.4353 23.6434 12.4462C23.6017 11.5318 23.4489 11.0351 23.3204 10.7046C23.1502 10.2668 22.947 9.95435 22.6188 9.62616C22.2906 9.29796 21.9781 9.09468 21.5403 8.92453C21.2098 8.79612 20.7132 8.64332 19.7987 8.60159ZM12.1417 6.91338C13.142 6.86773 13.4614 6.85693 16.0086 6.85693C18.556 6.85693 18.8754 6.86773 19.8757 6.91338C20.8741 6.95894 21.5558 7.11747 22.1525 7.34936C22.7693 7.58905 23.2923 7.90976 23.8138 8.43118C24.3352 8.9526 24.656 9.47566 24.8956 10.0924C25.1275 10.6891 25.286 11.3708 25.3316 12.3692C25.3772 13.3695 25.3881 13.689 25.3881 16.2363C25.3881 18.7836 25.3772 19.1029 25.3316 20.1034C25.286 21.1017 25.1275 21.7835 24.8956 22.3801C24.656 22.9969 24.3352 23.5199 23.8138 24.0413C23.2923 24.5628 22.7693 24.8835 22.1525 25.1231C21.5558 25.355 20.8741 25.5135 19.8757 25.5591C18.8754 25.6047 18.556 25.6156 16.0086 25.6156C13.4614 25.6156 13.142 25.6047 12.1417 25.5591C11.1433 25.5135 10.4615 25.355 9.86486 25.1231C9.24809 24.8835 8.72503 24.5628 8.2036 24.0413C7.68218 23.5199 7.36146 22.9969 7.12177 22.3801C6.8899 21.7835 6.73137 21.1017 6.68579 20.1034C6.64015 19.1029 6.62939 18.7836 6.62939 16.2363C6.62939 13.689 6.64015 13.3695 6.68579 12.3692C6.73137 11.3708 6.8899 10.6891 7.12177 10.0924C7.36146 9.47566 7.68218 8.9526 8.2036 8.43118C8.72503 7.90976 9.24809 7.58905 9.86486 7.34936C10.4615 7.11747 11.1433 6.95894 12.1417 6.91338ZM11.1923 16.2363C11.1923 13.5763 13.3486 11.4198 16.0086 11.4198C18.6688 11.4198 20.8251 13.5763 20.8251 16.2363C20.8251 18.8963 18.6688 21.0526 16.0086 21.0526C13.3486 21.0526 11.1923 18.8963 11.1923 16.2363ZM12.8822 16.2363C12.8822 17.9629 14.282 19.3627 16.0086 19.3627C17.7354 19.3627 19.1352 17.9629 19.1352 16.2363C19.1352 14.5095 17.7354 13.1098 16.0086 13.1098C14.282 13.1098 12.8822 14.5095 12.8822 16.2363ZM21.0154 12.3551C21.637 12.3551 22.1409 11.8511 22.1409 11.2296C22.1409 10.6079 21.637 10.1041 21.0154 10.1041C20.3938 10.1041 19.8899 10.6079 19.8899 11.2296C19.8899 11.8511 20.3938 12.3551 21.0154 12.3551Z" fill="#163C66"/>
</svg>
