<svg width="14" height="14" viewBox="0 0 14 14" fill="none" xmlns="http://www.w3.org/2000/svg">
<path d="M1.14645 10.4092C1.05268 10.503 1 10.6302 1 10.7628V12.5C1 12.7761 1.22386 13 1.5 13H3.23722C3.36982 13 3.497 12.9473 3.59077 12.8536L10.2999 6.14443C10.4952 5.94917 10.4952 5.63258 10.2999 5.43732L8.56268 3.7001C8.36742 3.50484 8.05083 3.50484 7.85557 3.7001L1.14645 10.4092ZM12.6478 3.79788C12.8424 3.6025 12.8421 3.28646 12.6471 3.09147L10.9099 1.35425C10.7144 1.15872 10.3973 1.15903 10.2021 1.35495L9.57314 1.98642C9.37854 2.18179 9.37885 2.49784 9.57384 2.69283L11.3111 4.43004C11.5066 4.62558 11.8237 4.62526 12.0189 4.42934L12.6478 3.79788Z" stroke="#163C66" stroke-width="1.2"/>
</svg>
