<svg width="15" height="15" viewBox="0 0 15 15" fill="none" xmlns="http://www.w3.org/2000/svg">
<path d="M12.1238 4.70139C12.1238 4.37002 11.8552 4.10139 11.5238 4.10139C11.1924 4.10139 10.9238 4.37002 10.9238 4.70139H12.1238ZM4.07619 4.70139C4.07619 4.37002 3.80756 4.10139 3.47619 4.10139C3.14482 4.10139 2.87619 4.37002 2.87619 4.70139H4.07619ZM1 2.56667C0.668629 2.56667 0.4 2.8353 0.4 3.16667C0.4 3.49804 0.668629 3.76667 1 3.76667V2.56667ZM14 3.76667C14.3314 3.76667 14.6 3.49804 14.6 3.16667C14.6 2.8353 14.3314 2.56667 14 2.56667V3.76667ZM5.6 12.375C5.6 12.7064 5.86863 12.975 6.2 12.975C6.53137 12.975 6.8 12.7064 6.8 12.375H5.6ZM6.8 5.875C6.8 5.54363 6.53137 5.275 6.2 5.275C5.86863 5.275 5.6 5.54363 5.6 5.875H6.8ZM8.2 12.375C8.2 12.7064 8.46863 12.975 8.8 12.975C9.13137 12.975 9.4 12.7064 9.4 12.375H8.2ZM9.4 5.875C9.4 5.54363 9.13137 5.275 8.8 5.275C8.46863 5.275 8.2 5.54363 8.2 5.875H9.4ZM5.77632 1.40368L6.25796 1.76147L5.77632 1.40368ZM4.47619 14.6H10.5238V13.4H4.47619V14.6ZM12.1238 13V4.70139H10.9238V13H12.1238ZM2.87619 4.70139V13H4.07619V4.70139H2.87619ZM11.015 2.80887L9.70533 1.04588L8.74204 1.76147L10.0517 3.52446L11.015 2.80887ZM8.42094 0.4H6.57906V1.6H8.42094V0.4ZM5.29467 1.04588L3.98502 2.80887L4.94831 3.52446L6.25796 1.76147L5.29467 1.04588ZM1 3.76667H14V2.56667H1V3.76667ZM6.8 12.375V5.875H5.6V12.375H6.8ZM9.4 12.375V5.875H8.2V12.375H9.4ZM6.57906 0.4C6.07287 0.4 5.59653 0.639536 5.29467 1.04588L6.25796 1.76147C6.33343 1.65988 6.45251 1.6 6.57906 1.6V0.4ZM10.5238 14.6C11.4075 14.6 12.1238 13.8837 12.1238 13H10.9238C10.9238 13.2209 10.7447 13.4 10.5238 13.4V14.6ZM9.70533 1.04588C9.40347 0.639537 8.92713 0.4 8.42094 0.4V1.6C8.54749 1.6 8.66657 1.65988 8.74204 1.76147L9.70533 1.04588ZM4.47619 13.4C4.25528 13.4 4.07619 13.2209 4.07619 13H2.87619C2.87619 13.8837 3.59254 14.6 4.47619 14.6V13.4Z" fill="#163C66"/>
</svg>
