<svg width="32" height="32" viewBox="0 0 32 32" fill="none" xmlns="http://www.w3.org/2000/svg">
<path fill-rule="evenodd" clip-rule="evenodd" d="M16 32C24.8366 32 32 24.8366 32 16C32 7.16344 24.8366 0 16 0C7.16344 0 0 7.16344 0 16C0 24.8366 7.16344 32 16 32ZM25.5981 11.0875C25.38 10.2775 24.7413 9.63876 23.9312 9.42065C22.4513 9.01562 16.5315 9.01562 16.5315 9.01562C16.5315 9.01562 10.6119 9.01562 9.13199 9.40508C8.33751 9.62317 7.68324 10.2775 7.46515 11.0875C7.07568 12.5674 7.07568 15.6363 7.07568 15.6363C7.07568 15.6363 7.07568 18.7208 7.46515 20.1851C7.68324 20.9952 8.32193 21.6338 9.13199 21.852C10.6275 22.257 16.5315 22.257 16.5315 22.257C16.5315 22.257 22.4513 22.257 23.9312 21.8675C24.7413 21.6495 25.38 21.0107 25.5981 20.2007C25.9875 18.7208 25.9875 15.6519 25.9875 15.6519C25.9875 15.6519 26.0031 12.5674 25.5981 11.0875ZM19.5609 15.6321L14.6382 18.4673V12.7969L19.5609 15.6321Z" fill="#163C66"/>
</svg>
