<svg width="32" height="32" viewBox="0 0 32 32" fill="none" xmlns="http://www.w3.org/2000/svg">
<path fill-rule="evenodd" clip-rule="evenodd" d="M32 16C32 24.8366 24.8366 32 16 32C7.16344 32 0 24.8366 0 16C0 7.16344 7.16344 0 16 0C24.8366 0 32 7.16344 32 16ZM24.4693 10.9688C25.1346 10.9688 25.2745 11.3096 25.1346 11.7736C24.8549 13.0494 22.1739 16.8071 22.1739 16.8071C21.9408 17.1782 21.8475 17.3638 22.1739 17.7813C22.2889 17.9414 22.5342 18.1805 22.8148 18.454C23.1033 18.7352 23.4292 19.0529 23.6893 19.3586C24.6345 20.4167 25.3469 21.3093 25.5453 21.9245C25.7266 22.5417 25.4123 22.8545 24.7835 22.8545H22.5831C21.9937 22.8545 21.6969 22.526 21.0556 21.8163C20.7838 21.5154 20.45 21.146 20.0058 20.704C18.7003 19.4514 18.1408 19.289 17.8144 19.289C17.3714 19.289 17.239 19.4138 17.239 20.0394V22.003C17.239 22.5417 17.0659 22.8545 15.6672 22.8545C13.3359 22.8545 10.7739 21.4462 8.95554 18.8483C6.22796 15.0442 5.48193 12.1679 5.48193 11.588C5.48193 11.2632 5.60769 10.9688 6.2364 10.9688H8.43692C8.9993 10.9688 9.21085 11.2137 9.42176 11.82C10.498 14.9393 12.3126 17.6654 13.0586 17.6654C13.3384 17.6654 13.4666 17.5371 13.4666 16.8303V13.6061C13.4161 12.6883 13.0939 12.2913 12.8552 11.9974C12.7079 11.8158 12.5923 11.6735 12.5923 11.472C12.5923 11.2271 12.8026 10.9688 13.1523 10.9688H16.6103C17.0766 10.9688 17.239 11.2169 17.239 11.7736V16.1112C17.239 16.5751 17.4414 16.7375 17.5813 16.7375C17.861 16.7375 18.0942 16.5751 18.6071 16.0648C20.1923 14.3019 21.3113 11.588 21.3113 11.588C21.4512 11.2632 21.7091 10.9688 22.2687 10.9688H24.4693Z" fill="#163C66"/>
</svg>
